<svg version="1.1" id="Layer_1" xmlns="http://www.w3.org/2000/svg" x="0" y="0" viewBox="0 0 675.6 177.7" xml:space="preserve"><path d="M227.4 111.6c-4.2 0-7.6-1.2-10.4-3.6-2.9-2.7-4.4-6.7-4.4-11.8V73.4c0-5.1 1.5-9 4.4-11.8 2.7-2.4 6.2-3.6 10.4-3.6s7.6 1.2 10.4 3.6c2.9 2.8 4.4 6.7 4.4 11.8h-7.9c0-2.6-.5-4.4-1.6-5.7-1.1-1.2-2.8-1.8-5.2-1.8s-4.1.6-5.2 1.8c-1.1 1.2-1.6 3.1-1.6 5.7v22.8c0 2.6.5 4.4 1.6 5.7 1.1 1.2 2.8 1.8 5.2 1.8s4.1-.6 5.2-1.8c1.1-1.2 1.6-3.1 1.6-5.7v-7.4h-6.7v-8h14.7v15.3c0 5.1-1.5 9-4.4 11.8-2.9 2.5-6.4 3.7-10.5 3.7zm69.9-.9H289l-7.1-21.8h-6.2v21.8h-7.9v-52h14.8c4.2 0 7.6 1.2 10.3 3.6 3.1 2.8 4.6 6.6 4.6 11.5s-1.5 8.7-4.6 11.5c-1 .9-2 1.6-3.1 2.2l7.5 23.2zm-7.8-36.9c0-2.6-.7-4.5-2-5.6-1.1-1-2.8-1.5-5-1.5h-6.8V81h6.8c2.2 0 3.8-.5 5-1.6 1.3-1.1 2-3 2-5.6zm58.8-7.1h-17.9v13.2h12.4v7.9h-12.4v15h17.9v7.9h-25.8v-52h25.8v8zm51.2 0h-17.9v13.2H394v7.9h-12.4v15h17.9v7.9h-25.8v-52h25.8v8zm55.8-8v52h-4.4l-18.2-31.1v31.1h-7.9v-52h4.4l18.1 31v-31h8zm26.1 52v-52h13.4c4.2 0 7.6 1.1 10.2 3.4 3.1 2.6 4.6 6.4 4.6 11.4 0 2.2-.4 4.2-1.2 5.8-.8 1.7-1.8 3.2-3.1 4.6 3.9 3.2 5.8 7.2 5.8 12 0 5.1-1.5 8.9-4.6 11.4-2.6 2.2-6 3.4-10.3 3.4h-14.8zm7.9-30h5.4c2.2 0 3.9-.5 5-1.5 1.2-1.1 1.9-3 1.9-5.7 0-2.6-.6-4.4-1.8-5.4-1-.9-2.7-1.4-5.1-1.4h-5.4v14zm0 8v14.1h6.8c2.3 0 4-.5 5.1-1.4 1.2-1.1 1.9-2.9 1.9-5.4 0-2.7-.7-4.6-2-5.7-1.2-1.1-2.8-1.6-5-1.6h-6.8zm61.5 22.9c-4.2 0-7.6-1.2-10.4-3.6-2.9-2.7-4.4-6.7-4.4-11.8V58.8h7.9v37.4c0 2.6.5 4.4 1.6 5.7 1.1 1.2 2.8 1.8 5.2 1.8s4.1-.6 5.2-1.8c1.1-1.2 1.6-3.1 1.6-5.7V58.8h7.9v37.4c0 5.1-1.5 9-4.4 11.8-2.6 2.4-6 3.6-10.2 3.6zm54.3 0c-4.2 0-7.6-1.2-10.4-3.6-2.9-2.7-4.4-6.7-4.4-11.8V94h7.9v2.2c0 2.6.5 4.4 1.6 5.7 1.1 1.2 2.8 1.8 5.2 1.8 2.2 0 3.8-.5 5-1.4 1.2-1.1 1.9-2.6 1.9-4.8 0-2.9-1-5.3-2.9-7.2-.8-.7-1.6-1.3-2.4-1.8-.8-.4-2-1-3.8-1.8-2.9-1.2-5.3-2.6-7.1-4.1-3.5-2.9-5.2-6.6-5.2-10.9 0-4.4 1.6-7.9 4.8-10.6 2.7-2.1 6-3.2 9.8-3.2 4.2 0 7.6 1.2 10.4 3.6 2.9 2.8 4.4 6.7 4.4 11.8H612c0-2.6-.5-4.4-1.6-5.7-1.1-1.2-2.8-1.8-5.2-1.8-1.9 0-3.6.5-4.9 1.5-1.2.9-1.8 2.4-1.8 4.3 0 1.7.7 3.2 2.2 4.4 1.5 1.3 3.7 2.5 6.6 3.8 1.4.6 2.7 1.3 3.8 1.9 1.1.7 2.3 1.6 3.5 2.8 1.7 1.6 2.9 3.3 3.7 5.2 1.1 2.4 1.6 5 1.6 7.7 0 4.7-1.6 8.3-4.8 10.9-2.7 2.2-6 3.3-10 3.3zm61.4-52.9h7.9v52h-7.9V87.8h-13.7v22.9h-7.9v-52h7.9v21.1h13.7V58.7zm-440.8 72.2v1.2h-4.4v17h-1.2v-17h-4.3v-1.2h9.9zm16.6 0h1.2v18.2h-1.2v-8.8h-7v8.8h-1.2v-18.2h1.2v8.2h7v-8.2zm18.8 1.2h-7v7h4.9v1.2h-4.9v7.6h7v1.2h-8.2v-18.2h8.2v1.2zm29.5 0h-7v7h4.9v1.2h-4.9v7.6h7v1.2h-8.2v-18.2h8.2v1.2zm13.4 17h-4.7v-18.2h4.7c1.4 0 2.5.4 3.3 1.1.9.9 1.4 2.1 1.4 3.8v8.5c0 1.6-.5 2.9-1.4 3.7-.8.7-1.9 1.1-3.3 1.1zm-3.4-1.2h3.5c2.3 0 3.5-1.2 3.5-3.6v-8.5c0-1.2-.3-2.1-.9-2.7-.6-.7-1.5-1-2.6-1h-3.5v15.8zm21.4 1.5c-1.4 0-2.5-.4-3.3-1.1-.9-.9-1.4-2.1-1.4-3.8v-13.6h1.2v13.6c0 1.3.3 2.2 1 2.9.6.5 1.4.8 2.5.8s1.9-.3 2.5-.8c.7-.6 1-1.6 1-2.9v-13.6h1.2v13.6c0 1.7-.5 2.9-1.4 3.8-.9.7-2 1.1-3.3 1.1zm18.1 0c-1.4 0-2.5-.4-3.3-1.1-.9-.9-1.4-2.1-1.4-3.8v-9c0-1.7.5-2.9 1.4-3.8.8-.8 1.9-1.1 3.3-1.1s2.5.4 3.3 1.1c.9.9 1.4 2.1 1.4 3.8h-1.2c0-1.3-.3-2.2-1-2.9-.6-.5-1.4-.8-2.5-.8s-1.9.3-2.5.8c-.7.6-1 1.6-1 2.9v9c0 1.3.3 2.3 1 2.9.6.5 1.4.8 2.5.8s1.9-.3 2.5-.8c.7-.6 1-1.6 1-2.9v-1h1.2v1c0 1.7-.5 2.9-1.4 3.8-.9.7-2 1.1-3.3 1.1zm22.9-.3l-1.3-4.7h-6.3l-1.3 4.7h-1.3l5.1-18.2h1.2l5 18.2H363zm-7.2-6h5.6l-2.8-10.2-2.8 10.2zm24.2-12.2v1.2h-4.4v17h-1.2v-17H370v-1.2h10zm8.4 18.2v-18.2h1.2v18.2h-1.2zm14.8.3c-1.4 0-2.5-.4-3.3-1.1-.9-.9-1.4-2.1-1.4-3.8v-9c0-1.7.5-2.9 1.4-3.8.8-.8 1.9-1.1 3.3-1.1s2.5.4 3.3 1.1c.9.9 1.4 2.1 1.4 3.8v9c0 1.7-.5 2.9-1.4 3.8-.8.7-1.9 1.1-3.3 1.1zm0-17.7c-1 0-1.9.3-2.5.8-.7.6-1 1.6-1 2.9v9c0 1.3.3 2.3 1 2.9.6.5 1.4.8 2.5.8s1.9-.3 2.5-.8c.7-.6 1-1.6 1-2.9v-9c0-1.3-.3-2.2-1-2.9-.6-.5-1.5-.8-2.5-.8zm23.3-.8v18.2h-.7l-7.9-14.8v14.8h-1.2v-18.2h.7l7.9 14.8v-14.8h1.2zm25.2 18.5c-1.4 0-2.5-.4-3.3-1.1-.9-.9-1.4-2.1-1.4-3.8v-1h1.2v1c0 1.3.3 2.2 1 2.9.6.5 1.4.8 2.5.8 1 0 1.8-.3 2.5-.8.7-.6 1-1.5 1-2.7 0-1.4-.5-2.5-1.4-3.4-.4-.4-1.3-.9-2.6-1.4-.5-.2-1-.5-1.3-.6-.3-.2-.7-.4-1.1-.8-1.2-1-1.7-2.2-1.7-3.8 0-1.4.5-2.4 1.5-3.2.9-.7 1.9-1 3.1-1 1.4 0 2.5.4 3.3 1.1.9.9 1.4 2.1 1.4 3.8h-1.2c0-1.3-.3-2.3-1-2.9-.6-.5-1.4-.8-2.5-.8-1 0-1.8.2-2.4.7-.7.6-1 1.3-1 2.3 0 1.2.4 2.1 1.3 2.8.4.4.9.7 1.3.9.4.2.7.3.8.3 1.4.5 2.3 1.1 2.9 1.7 1.2 1.1 1.8 2.5 1.8 4.3 0 1.5-.5 2.7-1.4 3.6-.9.7-2 1.1-3.3 1.1zm21.6-17.3h-7v7h4.9v1.2h-4.9v7.6h7v1.2h-8.2v-18.2h8.2v1.2zm14.9 9l3.3 7.9h-1.3l-3.2-7.8h-3.6v7.8h-1.2v-18.2h4.7c1.4 0 2.5.4 3.3 1.1.4.4.8 1 1 1.7.3.7.4 1.5.4 2.3s-.1 1.6-.4 2.3c-.2.7-.6 1.3-1 1.7-.6.7-1.3 1-2 1.2zm-4.9-1h3.5c1.1 0 1.9-.3 2.5-.8.3-.3.6-.7.8-1.3.2-.6.3-1.2.3-1.8 0-.7-.1-1.3-.3-1.8-.2-.6-.4-1-.8-1.3-.6-.5-1.4-.8-2.5-.8h-3.5v7.8zm21 9l-5.1-18.2h1.3l4.4 16.2 4.4-16.2h1.2l-5 18.2h-1.2zm14.8 0v-18.2h1.2v18.2h-1.2zm15 .3c-1.4 0-2.5-.4-3.3-1.1-.9-.9-1.4-2.1-1.4-3.8v-9c0-1.7.5-2.9 1.4-3.8.8-.8 1.9-1.1 3.3-1.1s2.5.4 3.3 1.1c.9.9 1.4 2.1 1.4 3.8h-1.2c0-1.3-.3-2.2-1-2.9-.6-.5-1.4-.8-2.5-.8s-1.9.3-2.5.8c-.7.6-1 1.6-1 2.9v9c0 1.3.3 2.3 1 2.9.6.5 1.4.8 2.5.8s1.9-.3 2.5-.8c.7-.6 1-1.6 1-2.9v-1h1.2v1c0 1.7-.5 2.9-1.4 3.8-.8.7-1.9 1.1-3.3 1.1zm21.9-17.3h-7v7h4.9v1.2H549v7.6h7v1.2h-8.2v-18.2h8.2v1.2zm24.9 17.3c-1.4 0-2.5-.4-3.3-1.1-.9-.9-1.4-2.1-1.4-3.8v-9c0-1.7.5-2.9 1.4-3.8.8-.8 1.9-1.1 3.3-1.1s2.5.4 3.3 1.1c.9.9 1.4 2.1 1.4 3.8h-1.2c0-1.3-.3-2.2-1-2.9-.6-.5-1.4-.8-2.5-.8s-1.9.3-2.5.8c-.7.6-1 1.6-1 2.9v9c0 1.3.3 2.3 1 2.9.6.5 1.4.8 2.5.8s1.9-.3 2.5-.8c.7-.6 1-1.6 1-2.9v-1h1.2v1c0 1.7-.5 2.9-1.4 3.8-.9.7-2 1.1-3.3 1.1zm21.8-17.3h-7v7h4.9v1.2h-4.9v7.6h7v1.2h-8.2v-18.2h8.2v1.2zm18.7-1.2v18.2h-.6l-7.9-14.8v14.8h-1.2v-18.2h.7l7.9 14.8v-14.8h1.1zm18.4 0v1.2h-4.4v17h-1.2v-17h-4.4v-1.2h10zm16.5 1.2h-7v7h4.9v1.2h-4.9v7.6h7v1.2h-8.2v-18.2h8.2v1.2zm14.8 9l3.3 7.9h-1.3l-3.2-7.8h-3.6v7.8h-1.2v-18.2h4.7c1.4 0 2.5.4 3.3 1.1.4.4.8 1 1 1.7.3.7.4 1.5.4 2.3s-.1 1.6-.4 2.3c-.2.7-.6 1.3-1 1.7-.6.7-1.2 1-2 1.2zm-4.9-1h3.5c1.1 0 1.9-.3 2.5-.8.3-.3.6-.7.8-1.3.2-.6.3-1.2.3-1.8 0-.7-.1-1.3-.3-1.8-.2-.6-.4-1-.8-1.3-.6-.5-1.4-.8-2.5-.8h-3.5v7.8z" fill="#444"/><path d="M5.4 103.1c3.1 1.4 4.3 5.7 5.6 10.2 1.1 3.9.8 5 2.1 6.2 1.7 1.6 3.6 1.3 6.9 1.9 0 0 5.6.9 10.9 3.9 4.2 2.4 3.3 3.8 9.5 9.5 4.5 4.1 6.7 6.1 10.4 7.6 6 2.4 9.9 3.7 9.9 3.7 1.5.5 2.7.9 3.9 2.1 1.9 1.9 2.2 4.6 2.3 6.2.2 2.3.4 4.3-.7 5.8-.7.9-1.9 1.7-8.3 2.3-6.2.6-7 0-11.1.7-2.7.4-1.7.6-7.9 2.1-6.1 1.5-8 1.6-8.8 3.2-.8 1.5-.3 3.8.9 5.1 2 2.1 5.9 1.3 11.8 0 5-1.1 5.5-1.9 8.8-2.3 4.9-.7 8.6.4 11.1.9 2.3.5 9.1.7 22.7 1.2 5.7.2 4.3 0 29.1.2 6.9.1 13.8-.6 20.6 0 7.9.7 13.1 2.1 14.8-.5 1.3-1.9.4-5.4-1.6-7.2-2.8-2.3-6.5-.4-15.7.9-9 1.3-14.9 2.1-17.3-.9-2.5-3.1-.7-9.1 1.4-12.5 2.1-3.4 5.7-5.5 13-9.5 5.7-3.1 7.4-3.5 11.6-6.5 5.5-4 6.8-6.6 7.2-7.4 1.8-4 2-9.9-.2-11.1s-5.3 2.5-13 8.3c-6.2 4.7-15.1 11.3-26.4 14.8-3.7 1.2-9.1 2.8-16.2 2.3-2.1-.1-5-.5-18.3-5.6-12.6-4.8-19-7.3-24.1-10.9-6.2-4.4-5.8-5.8-11.1-8.6-7.8-4-16-4.6-16-6.5 0-.5.7-.6 2.8-2.5 1.8-1.7 2.7-2.6 2.5-3.5-.2-1.4-2.4-2.3-3.9-2.5-1.3-.2-1.7.2-4.2.5-2.2.2-3.4.4-4.6 0-2.2-.6-2.1-2-4.9-4.2-1.3-1-4.5-3.5-7.2-2.5-1.7.6-3 2.7-2.5 3.7.5 1.2 2.2.5 4.2 1.4z" fill="#946846"/><linearGradient id="SVGID_1_" gradientUnits="userSpaceOnUse" x1="93.505" y1="152.69" x2="93.505" y2="51.526" gradientTransform="matrix(1 0 0 -1 0 177.988)"><stop offset="0" stop-color="#01d28e"/><stop offset="1" stop-color="#01b379"/></linearGradient><path d="M51.9 99.8c0 3.5.4 6.9 1.2 10.1-1.2.1-2.4.2-3.7.2-23.6 0-42.8-19.2-42.8-42.8 0-23.6 19.2-42.8 42.8-42.8 20.2 0 37.1 13.9 41.6 32.7-21.8 1.9-39.1 20.3-39.1 42.6zm128.5-37.4c0-33-26.7-59.7-59.7-59.7-20.2 0-38 10-48.8 25.3 10.8 6.2 18.8 16.6 21.7 29.1h1.2c23.6 0 42.8 19.2 42.8 42.8 0 7.7-2 14.9-5.6 21.2 27.5-5.4 48.4-29.6 48.4-58.7zm-45.3 37.4c0-22.3-18.1-40.4-40.4-40.4S54.4 77.6 54.4 99.8c0 22.3 18.1 40.4 40.4 40.4s40.3-18.1 40.3-40.4z" fill="url(#SVGID_1_)"/></svg>